<svg width="102" height="18" viewBox="0 0 102 18" fill="none" xmlns="http://www.w3.org/2000/svg">
<path d="M8.04894 2.92705C8.3483 2.00574 9.6517 2.00574 9.95106 2.92705L10.7961 5.52786C10.93 5.93989 11.3139 6.21885 11.7472 6.21885H14.4818C15.4505 6.21885 15.8533 7.45846 15.0696 8.02786L12.8572 9.63525C12.5067 9.8899 12.3601 10.3413 12.494 10.7533L13.339 13.3541C13.6384 14.2754 12.5839 15.0415 11.8002 14.4721L9.58779 12.8647C9.2373 12.6101 8.7627 12.6101 8.41222 12.8647L6.19983 14.4721C5.41612 15.0415 4.36164 14.2754 4.66099 13.3541L5.50604 10.7533C5.63992 10.3413 5.49326 9.8899 5.14277 9.63525L2.93039 8.02787C2.14668 7.45846 2.54945 6.21885 3.51818 6.21885H6.25283C6.68606 6.21885 7.07001 5.93989 7.20389 5.52786L8.04894 2.92705Z" fill="#FFC41F"/>
<path d="M27.0489 2.92705C27.3483 2.00574 28.6517 2.00574 28.9511 2.92705L29.7961 5.52786C29.93 5.93989 30.3139 6.21885 30.7472 6.21885H33.4818C34.4505 6.21885 34.8533 7.45846 34.0696 8.02786L31.8572 9.63525C31.5067 9.8899 31.3601 10.3413 31.494 10.7533L32.339 13.3541C32.6384 14.2754 31.5839 15.0415 30.8002 14.4721L28.5878 12.8647C28.2373 12.6101 27.7627 12.6101 27.4122 12.8647L25.1998 14.4721C24.4161 15.0415 23.3616 14.2754 23.661 13.3541L24.506 10.7533C24.6399 10.3413 24.4933 9.8899 24.1428 9.63525L21.9304 8.02787C21.1467 7.45846 21.5495 6.21885 22.5182 6.21885H25.2528C25.6861 6.21885 26.07 5.93989 26.2039 5.52786L27.0489 2.92705Z" fill="#FFC41F"/>
<path d="M46.0489 2.92705C46.3483 2.00574 47.6517 2.00574 47.9511 2.92705L48.7961 5.52786C48.93 5.93989 49.3139 6.21885 49.7472 6.21885H52.4818C53.4505 6.21885 53.8533 7.45846 53.0696 8.02786L50.8572 9.63525C50.5067 9.8899 50.3601 10.3413 50.494 10.7533L51.339 13.3541C51.6384 14.2754 50.5839 15.0415 49.8002 14.4721L47.5878 12.8647C47.2373 12.6101 46.7627 12.6101 46.4122 12.8647L44.1998 14.4721C43.4161 15.0415 42.3616 14.2754 42.661 13.3541L43.506 10.7533C43.6399 10.3413 43.4933 9.8899 43.1428 9.63525L40.9304 8.02787C40.1467 7.45846 40.5495 6.21885 41.5182 6.21885H44.2528C44.6861 6.21885 45.07 5.93989 45.2039 5.52786L46.0489 2.92705Z" fill="#FFC41F"/>
<path d="M65.0489 2.92705C65.3483 2.00574 66.6517 2.00574 66.9511 2.92705L67.7961 5.52786C67.93 5.93989 68.3139 6.21885 68.7472 6.21885H71.4818C72.4505 6.21885 72.8533 7.45846 72.0696 8.02786L69.8572 9.63525C69.5067 9.8899 69.3601 10.3413 69.494 10.7533L70.339 13.3541C70.6384 14.2754 69.5839 15.0415 68.8002 14.4721L66.5878 12.8647C66.2373 12.6101 65.7627 12.6101 65.4122 12.8647L63.1998 14.4721C62.4161 15.0415 61.3616 14.2754 61.661 13.3541L62.506 10.7533C62.6399 10.3413 62.4933 9.8899 62.1428 9.63525L59.9304 8.02787C59.1467 7.45846 59.5495 6.21885 60.5182 6.21885H63.2528C63.6861 6.21885 64.07 5.93989 64.2039 5.52786L65.0489 2.92705Z" fill="#FFC41F"/>
<path d="M84.0489 2.92705C84.3483 2.00574 85.6517 2.00574 85.9511 2.92705L86.7961 5.52786C86.93 5.93989 87.3139 6.21885 87.7472 6.21885H90.4818C91.4505 6.21885 91.8533 7.45846 91.0696 8.02786L88.8572 9.63525C88.5067 9.8899 88.3601 10.3413 88.494 10.7533L89.339 13.3541C89.6384 14.2754 88.5839 15.0415 87.8002 14.4721L85.5878 12.8647C85.2373 12.6101 84.7627 12.6101 84.4122 12.8647L82.1998 14.4721C81.4161 15.0415 80.3616 14.2754 80.661 13.3541L81.506 10.7533C81.6399 10.3413 81.4933 9.8899 81.1428 9.63525L78.9304 8.02787C78.1467 7.45846 78.5495 6.21885 79.5182 6.21885H82.2528C82.6861 6.21885 83.07 5.93989 83.2039 5.52786L84.0489 2.92705Z" fill="#FFC41F"/>
</svg>
