<svg width="24" height="25" viewBox="0 0 24 25" fill="none" xmlns="http://www.w3.org/2000/svg">
<path fill-rule="evenodd" clip-rule="evenodd" d="M15 10.5C15 13.2614 12.7614 15.5 10 15.5C7.23858 15.5 5 13.2614 5 10.5C5 7.73858 7.23858 5.5 10 5.5C12.7614 5.5 15 7.73858 15 10.5ZM13.6048 16.5017C12.5518 17.1355 11.3185 17.5 10 17.5C6.13401 17.5 3 14.366 3 10.5C3 6.63401 6.13401 3.5 10 3.5C13.866 3.5 17 6.63401 17 10.5C17 12.3276 16.2996 13.9917 15.1525 15.2383L18.6568 18.7426C19.0473 19.1332 19.0473 19.7663 18.6568 20.1569C18.2663 20.5474 17.6331 20.5474 17.2426 20.1569L13.7071 16.6213C13.6693 16.5836 13.6352 16.5435 13.6048 16.5017Z" fill="white"/>
</svg>
