<svg width="102" height="33" viewBox="0 0 102 33" fill="none" xmlns="http://www.w3.org/2000/svg">
<path d="M3.68297 24C2.59497 24 2.05097 23.456 2.05097 22.368V8.712C2.05097 7.624 2.59497 7.08 3.68297 7.08H8.33897C11.171 7.08 13.355 7.808 14.891 9.264C16.443 10.72 17.219 12.808 17.219 15.528C17.219 18.232 16.443 20.32 14.891 21.792C13.355 23.264 11.171 24 8.33897 24H3.68297ZM5.12297 21.456H8.14697C12.051 21.456 14.003 19.48 14.003 15.528C14.003 11.592 12.051 9.624 8.14697 9.624H5.12297V21.456ZM21.7722 9.864C21.2122 9.864 20.7722 9.728 20.4522 9.456C20.1482 9.168 19.9962 8.776 19.9962 8.28C19.9962 7.768 20.1482 7.376 20.4522 7.104C20.7722 6.832 21.2122 6.696 21.7722 6.696C22.9562 6.696 23.5482 7.224 23.5482 8.28C23.5482 9.336 22.9562 9.864 21.7722 9.864ZM21.7722 24.168C21.2922 24.168 20.9242 24.024 20.6682 23.736C20.4122 23.448 20.2842 23.048 20.2842 22.536V13.728C20.2842 12.64 20.7802 12.096 21.7722 12.096C22.7802 12.096 23.2842 12.64 23.2842 13.728V22.536C23.2842 23.048 23.1562 23.448 22.9002 23.736C22.6442 24.024 22.2682 24.168 21.7722 24.168ZM32.1134 28.56C31.2494 28.56 30.4094 28.48 29.5934 28.32C28.7934 28.16 28.0654 27.912 27.4094 27.576C27.0254 27.384 26.7934 27.136 26.7134 26.832C26.6494 26.544 26.6814 26.264 26.8094 25.992C26.9374 25.72 27.1294 25.52 27.3854 25.392C27.6574 25.28 27.9454 25.296 28.2494 25.44C28.9534 25.792 29.6174 26.016 30.2414 26.112C30.8814 26.224 31.4254 26.28 31.8734 26.28C34.0174 26.28 35.0894 25.248 35.0894 23.184V21.576C34.7534 22.232 34.2334 22.752 33.5294 23.136C32.8414 23.52 32.0734 23.712 31.2254 23.712C30.1694 23.712 29.2494 23.472 28.4654 22.992C27.6814 22.496 27.0734 21.808 26.6414 20.928C26.2094 20.048 25.9934 19.024 25.9934 17.856C25.9934 16.688 26.2094 15.672 26.6414 14.808C27.0734 13.928 27.6814 13.248 28.4654 12.768C29.2494 12.272 30.1694 12.024 31.2254 12.024C32.0734 12.024 32.8414 12.208 33.5294 12.576C34.2174 12.944 34.7214 13.448 35.0414 14.088V13.584C35.0414 13.088 35.1694 12.712 35.4254 12.456C35.6974 12.2 36.0654 12.072 36.5294 12.072C37.5214 12.072 38.0174 12.576 38.0174 13.584V22.824C38.0174 24.728 37.5134 26.16 36.5054 27.12C35.4974 28.08 34.0334 28.56 32.1134 28.56ZM32.0414 21.432C32.9694 21.432 33.7054 21.112 34.2494 20.472C34.7934 19.832 35.0654 18.96 35.0654 17.856C35.0654 16.752 34.7934 15.888 34.2494 15.264C33.7054 14.624 32.9694 14.304 32.0414 14.304C31.1134 14.304 30.3774 14.624 29.8334 15.264C29.2894 15.888 29.0174 16.752 29.0174 17.856C29.0174 18.96 29.2894 19.832 29.8334 20.472C30.3774 21.112 31.1134 21.432 32.0414 21.432ZM42.8538 9.864C42.2938 9.864 41.8538 9.728 41.5338 9.456C41.2298 9.168 41.0778 8.776 41.0778 8.28C41.0778 7.768 41.2298 7.376 41.5338 7.104C41.8538 6.832 42.2938 6.696 42.8538 6.696C44.0378 6.696 44.6298 7.224 44.6298 8.28C44.6298 9.336 44.0378 9.864 42.8538 9.864ZM42.8538 24.168C42.3738 24.168 42.0058 24.024 41.7498 23.736C41.4938 23.448 41.3658 23.048 41.3658 22.536V13.728C41.3658 12.64 41.8618 12.096 42.8538 12.096C43.8618 12.096 44.3658 12.64 44.3658 13.728V22.536C44.3658 23.048 44.2378 23.448 43.9818 23.736C43.7258 24.024 43.3498 24.168 42.8538 24.168ZM54.491 24.24C53.627 24.24 52.859 24.056 52.187 23.688C51.515 23.304 51.011 22.792 50.675 22.152V22.656C50.675 23.68 50.187 24.192 49.211 24.192C48.219 24.192 47.723 23.68 47.723 22.656V8.4C47.723 7.392 48.219 6.888 49.211 6.888C50.219 6.888 50.723 7.392 50.723 8.4V13.992C51.075 13.4 51.579 12.928 52.235 12.576C52.907 12.208 53.659 12.024 54.491 12.024C55.531 12.024 56.435 12.272 57.203 12.768C57.971 13.264 58.571 13.968 59.003 14.88C59.435 15.776 59.651 16.856 59.651 18.12C59.651 19.368 59.435 20.456 59.003 21.384C58.571 22.296 57.963 23 57.179 23.496C56.411 23.992 55.515 24.24 54.491 24.24ZM53.651 21.96C54.547 21.96 55.267 21.64 55.811 21C56.355 20.344 56.627 19.384 56.627 18.12C56.627 16.84 56.355 15.888 55.811 15.264C55.267 14.624 54.547 14.304 53.651 14.304C52.755 14.304 52.035 14.624 51.491 15.264C50.947 15.888 50.675 16.84 50.675 18.12C50.675 19.384 50.947 20.344 51.491 21C52.035 21.64 52.755 21.96 53.651 21.96ZM67.7056 24.24C66.4896 24.24 65.4336 23.992 64.5376 23.496C63.6416 23 62.9456 22.296 62.4496 21.384C61.9536 20.456 61.7056 19.368 61.7056 18.12C61.7056 16.872 61.9536 15.792 62.4496 14.88C62.9456 13.968 63.6416 13.264 64.5376 12.768C65.4336 12.272 66.4896 12.024 67.7056 12.024C68.9216 12.024 69.9776 12.272 70.8736 12.768C71.7696 13.264 72.4656 13.968 72.9616 14.88C73.4576 15.792 73.7056 16.872 73.7056 18.12C73.7056 19.368 73.4576 20.456 72.9616 21.384C72.4656 22.296 71.7696 23 70.8736 23.496C69.9776 23.992 68.9216 24.24 67.7056 24.24ZM67.7056 21.96C68.6016 21.96 69.3216 21.64 69.8656 21C70.4096 20.344 70.6816 19.384 70.6816 18.12C70.6816 16.84 70.4096 15.888 69.8656 15.264C69.3216 14.624 68.6016 14.304 67.7056 14.304C66.8096 14.304 66.0896 14.624 65.5456 15.264C65.0016 15.888 64.7296 16.84 64.7296 18.12C64.7296 19.384 65.0016 20.344 65.5456 21C66.0896 21.64 66.8096 21.96 67.7056 21.96ZM81.7737 24.24C80.5577 24.24 79.5017 23.992 78.6057 23.496C77.7097 23 77.0137 22.296 76.5177 21.384C76.0217 20.456 75.7737 19.368 75.7737 18.12C75.7737 16.872 76.0217 15.792 76.5177 14.88C77.0137 13.968 77.7097 13.264 78.6057 12.768C79.5017 12.272 80.5577 12.024 81.7737 12.024C82.9897 12.024 84.0457 12.272 84.9417 12.768C85.8377 13.264 86.5337 13.968 87.0297 14.88C87.5257 15.792 87.7737 16.872 87.7737 18.12C87.7737 19.368 87.5257 20.456 87.0297 21.384C86.5337 22.296 85.8377 23 84.9417 23.496C84.0457 23.992 82.9897 24.24 81.7737 24.24ZM81.7737 21.96C82.6697 21.96 83.3897 21.64 83.9337 21C84.4777 20.344 84.7497 19.384 84.7497 18.12C84.7497 16.84 84.4777 15.888 83.9337 15.264C83.3897 14.624 82.6697 14.304 81.7737 14.304C80.8777 14.304 80.1577 14.624 79.6137 15.264C79.0697 15.888 78.7977 16.84 78.7977 18.12C78.7977 19.384 79.0697 20.344 79.6137 21C80.1577 21.64 80.8777 21.96 81.7737 21.96ZM91.9778 24.192C90.9858 24.192 90.4898 23.68 90.4898 22.656V8.4C90.4898 7.392 90.9858 6.888 91.9778 6.888C92.9858 6.888 93.4898 7.392 93.4898 8.4V17.256H93.5378L97.4978 13.08C97.8178 12.76 98.0978 12.512 98.3378 12.336C98.5778 12.16 98.9058 12.072 99.3218 12.072C99.7378 12.072 100.05 12.184 100.258 12.408C100.482 12.616 100.594 12.872 100.594 13.176C100.594 13.48 100.45 13.784 100.162 14.088L96.5618 17.88L100.57 22.2C100.858 22.504 100.986 22.816 100.954 23.136C100.938 23.44 100.81 23.696 100.57 23.904C100.33 24.096 100.026 24.192 99.6578 24.192C99.2098 24.192 98.8498 24.104 98.5778 23.928C98.3218 23.752 98.0338 23.488 97.7138 23.136L93.5378 18.768H93.4898V22.656C93.4898 23.68 92.9858 24.192 91.9778 24.192Z" fill="white"/>
</svg>
